<svg width="32" height="32" viewBox="0 0 32 32" fill="none" xmlns="http://www.w3.org/2000/svg">
<path d="M8.08 11.9886L8.04 12.0286H8C7.76 12.0286 7.53333 12.0019 7.32 11.9486C7.13333 11.8686 6.96 11.7752 6.8 11.6686C6.64 11.5352 6.49333 11.3886 6.36 11.2286C6.25333 11.0686 6.16 10.8952 6.08 10.7086C6.02667 10.4952 6 10.2686 6 10.0286V9.98856L6.04 9.94856H8.08V11.9886ZM7.92 11.9886V9.94856H9.96L10 9.98856V10.0286C10 10.2686 9.96 10.4952 9.88 10.7086C9.82667 10.8952 9.73333 11.0686 9.6 11.2286C9.49333 11.3886 9.36 11.5352 9.2 11.6686C9.04 11.7752 8.85333 11.8686 8.64 11.9486C8.45333 12.0019 8.24 12.0286 8 12.0286H7.96L7.92 11.9886ZM7.92 8.06857L7.96 8.02857H8C8.24 8.02857 8.45333 8.06856 8.64 8.14856C8.85333 8.2019 9.04 8.29523 9.2 8.42856C9.36 8.53523 9.49333 8.66856 9.6 8.82856C9.73333 8.98856 9.82667 9.17523 9.88 9.38857C9.96 9.57523 10 9.78856 10 10.0286V10.0686L9.96 10.1086H7.92V8.06857ZM8.08 8.06857V10.1086H6.04L6 10.0686V10.0286C6 9.78856 6.02667 9.57523 6.08 9.38857C6.16 9.17523 6.25333 8.98856 6.36 8.82856C6.49333 8.66856 6.64 8.53523 6.8 8.42856C6.96 8.29523 7.13333 8.2019 7.32 8.14856C7.53333 8.06856 7.76 8.02857 8 8.02857H8.04L8.08 8.06857ZM12.08 23.9886L12.04 24.0286H12C11.76 24.0286 11.5333 24.0019 11.32 23.9486C11.1333 23.8686 10.96 23.7752 10.8 23.6686C10.64 23.5352 10.4933 23.3886 10.36 23.2286C10.2533 23.0686 10.16 22.8952 10.08 22.7086C10.0267 22.4952 10 22.2686 10 22.0286V21.9886L10.04 21.9486H12.08V23.9886ZM11.92 23.9886V21.9486H13.96L14 21.9886V22.0286C14 22.2686 13.96 22.4952 13.88 22.7086C13.8267 22.8952 13.7333 23.0686 13.6 23.2286C13.4933 23.3886 13.36 23.5352 13.2 23.6686C13.04 23.7752 12.8533 23.8686 12.64 23.9486C12.4533 24.0019 12.24 24.0286 12 24.0286H11.96L11.92 23.9886ZM11.92 20.0686L11.96 20.0286H12C12.24 20.0286 12.4533 20.0686 12.64 20.1486C12.8533 20.2019 13.04 20.2952 13.2 20.4286C13.36 20.5352 13.4933 20.6686 13.6 20.8286C13.7333 20.9886 13.8267 21.1752 13.88 21.3886C13.96 21.5752 14 21.7886 14 22.0286V22.0686L13.96 22.1086H11.92V20.0686ZM12.08 20.0686V22.1086H10.04L10 22.0686V22.0286C10 21.7886 10.0267 21.5752 10.08 21.3886C10.16 21.1752 10.2533 20.9886 10.36 20.8286C10.4933 20.6686 10.64 20.5352 10.8 20.4286C10.96 20.2952 11.1333 20.2019 11.32 20.1486C11.5333 20.0686 11.76 20.0286 12 20.0286H12.04L12.08 20.0686ZM12.08 19.9886L12.04 20.0286H12C11.76 20.0286 11.5333 20.0019 11.32 19.9486C11.1333 19.8686 10.96 19.7752 10.8 19.6686C10.64 19.5352 10.4933 19.3886 10.36 19.2286C10.2533 19.0686 10.16 18.8952 10.08 18.7086C10.0267 18.4952 10 18.2686 10 18.0286V17.9886L10.04 17.9486H12.08V19.9886ZM11.92 19.9886V17.9486H13.96L14 17.9886V18.0286C14 18.2686 13.96 18.4952 13.88 18.7086C13.8267 18.8952 13.7333 19.0686 13.6 19.2286C13.4933 19.3886 13.36 19.5352 13.2 19.6686C13.04 19.7752 12.8533 19.8686 12.64 19.9486C12.4533 20.0019 12.24 20.0286 12 20.0286H11.96L11.92 19.9886ZM11.92 16.0686L11.96 16.0286H12C12.24 16.0286 12.4533 16.0686 12.64 16.1486C12.8533 16.2019 13.04 16.2952 13.2 16.4286C13.36 16.5352 13.4933 16.6686 13.6 16.8286C13.7333 16.9886 13.8267 17.1752 13.88 17.3886C13.96 17.5752 14 17.7886 14 18.0286V18.0686L13.96 18.1086H11.92V16.0686ZM12.08 16.0686V18.1086H10.04L10 18.0686V18.0286C10 17.7886 10.0267 17.5752 10.08 17.3886C10.16 17.1752 10.2533 16.9886 10.36 16.8286C10.4933 16.6686 10.64 16.5352 10.8 16.4286C10.96 16.2952 11.1333 16.2019 11.32 16.1486C11.5333 16.0686 11.76 16.0286 12 16.0286H12.04L12.08 16.0686ZM12.08 15.9886L12.04 16.0286H12C11.76 16.0286 11.5333 16.0019 11.32 15.9486C11.1333 15.8686 10.96 15.7752 10.8 15.6686C10.64 15.5352 10.4933 15.3886 10.36 15.2286C10.2533 15.0686 10.16 14.8952 10.08 14.7086C10.0267 14.4952 10 14.2686 10 14.0286V13.9886L10.04 13.9486H12.08V15.9886ZM11.92 15.9886V13.9486H13.96L14 13.9886V14.0286C14 14.2686 13.96 14.4952 13.88 14.7086C13.8267 14.8952 13.7333 15.0686 13.6 15.2286C13.4933 15.3886 13.36 15.5352 13.2 15.6686C13.04 15.7752 12.8533 15.8686 12.64 15.9486C12.4533 16.0019 12.24 16.0286 12 16.0286H11.96L11.92 15.9886ZM11.92 12.0686L11.96 12.0286H12C12.24 12.0286 12.4533 12.0686 12.64 12.1486C12.8533 12.2019 13.04 12.2952 13.2 12.4286C13.36 12.5352 13.4933 12.6686 13.6 12.8286C13.7333 12.9886 13.8267 13.1752 13.88 13.3886C13.96 13.5752 14 13.7886 14 14.0286V14.0686L13.96 14.1086H11.92V12.0686ZM12.08 12.0686V14.1086H10.04L10 14.0686V14.0286C10 13.7886 10.0267 13.5752 10.08 13.3886C10.16 13.1752 10.2533 12.9886 10.36 12.8286C10.4933 12.6686 10.64 12.5352 10.8 12.4286C10.96 12.2952 11.1333 12.2019 11.32 12.1486C11.5333 12.0686 11.76 12.0286 12 12.0286H12.04L12.08 12.0686ZM12.08 11.9886L12.04 12.0286H12C11.76 12.0286 11.5333 12.0019 11.32 11.9486C11.1333 11.8686 10.96 11.7752 10.8 11.6686C10.64 11.5352 10.4933 11.3886 10.36 11.2286C10.2533 11.0686 10.16 10.8952 10.08 10.7086C10.0267 10.4952 10 10.2686 10 10.0286V9.98856L10.04 9.94856H12.08V11.9886ZM11.92 11.9886V9.94856H13.96L14 9.98856V10.0286C14 10.2686 13.96 10.4952 13.88 10.7086C13.8267 10.8952 13.7333 11.0686 13.6 11.2286C13.4933 11.3886 13.36 11.5352 13.2 11.6686C13.04 11.7752 12.8533 11.8686 12.64 11.9486C12.4533 12.0019 12.24 12.0286 12 12.0286H11.96L11.92 11.9886ZM11.92 8.06857L11.96 8.02857H12C12.24 8.02857 12.4533 8.06856 12.64 8.14856C12.8533 8.2019 13.04 8.29523 13.2 8.42856C13.36 8.53523 13.4933 8.66856 13.6 8.82856C13.7333 8.98856 13.8267 9.17523 13.88 9.38857C13.96 9.57523 14 9.78856 14 10.0286V10.0686L13.96 10.1086H11.92V8.06857ZM12.08 8.06857V10.1086H10.04L10 10.0686V10.0286C10 9.78856 10.0267 9.57523 10.08 9.38857C10.16 9.17523 10.2533 8.98856 10.36 8.82856C10.4933 8.66856 10.64 8.53523 10.8 8.42856C10.96 8.29523 11.1333 8.2019 11.32 8.14856C11.5333 8.06856 11.76 8.02857 12 8.02857H12.04L12.08 8.06857ZM12.08 7.98856L12.04 8.02857H12C11.76 8.02857 11.5333 8.0019 11.32 7.94856C11.1333 7.86856 10.96 7.77523 10.8 7.66857C10.64 7.53523 10.4933 7.38856 10.36 7.22856C10.2533 7.06856 10.16 6.89523 10.08 6.70856C10.0267 6.49523 10 6.26856 10 6.02856V5.98857L10.04 5.94856H12.08V7.98856ZM11.92 7.98856V5.94856H13.96L14 5.98857V6.02856C14 6.26856 13.96 6.49523 13.88 6.70856C13.8267 6.89523 13.7333 7.06856 13.6 7.22856C13.4933 7.38856 13.36 7.53523 13.2 7.66857C13.04 7.77523 12.8533 7.86856 12.64 7.94856C12.4533 8.0019 12.24 8.02857 12 8.02857H11.96L11.92 7.98856ZM11.92 4.06856L11.96 4.02856H12C12.24 4.02856 12.4533 4.06856 12.64 4.14857C12.8533 4.2019 13.04 4.29523 13.2 4.42856C13.36 4.53523 13.4933 4.66856 13.6 4.82856C13.7333 4.98856 13.8267 5.17523 13.88 5.38856C13.96 5.57523 14 5.78856 14 6.02856V6.06856L13.96 6.10856H11.92V4.06856ZM12.08 4.06856V6.10856H10.04L10 6.06856V6.02856C10 5.78856 10.0267 5.57523 10.08 5.38856C10.16 5.17523 10.2533 4.98856 10.36 4.82856C10.4933 4.66856 10.64 4.53523 10.8 4.42856C10.96 4.29523 11.1333 4.2019 11.32 4.14857C11.5333 4.06856 11.76 4.02856 12 4.02856H12.04L12.08 4.06856ZM16.08 27.9886L16.04 28.0286H16C15.76 28.0286 15.5333 28.0019 15.32 27.9486C15.1333 27.8686 14.96 27.7752 14.8 27.6686C14.64 27.5352 14.4933 27.3886 14.36 27.2286C14.2533 27.0686 14.16 26.8952 14.08 26.7086C14.0267 26.4952 14 26.2686 14 26.0286V25.9886L14.04 25.9486H16.08V27.9886ZM15.92 27.9886V25.9486H17.96L18 25.9886V26.0286C18 26.2686 17.96 26.4952 17.88 26.7086C17.8267 26.8952 17.7333 27.0686 17.6 27.2286C17.4933 27.3886 17.36 27.5352 17.2 27.6686C17.04 27.7752 16.8533 27.8686 16.64 27.9486C16.4533 28.0019 16.24 28.0286 16 28.0286H15.96L15.92 27.9886ZM15.92 24.0686L15.96 24.0286H16C16.24 24.0286 16.4533 24.0686 16.64 24.1486C16.8533 24.2019 17.04 24.2952 17.2 24.4286C17.36 24.5352 17.4933 24.6686 17.6 24.8286C17.7333 24.9886 17.8267 25.1752 17.88 25.3886C17.96 25.5752 18 25.7886 18 26.0286V26.0686L17.96 26.1086H15.92V24.0686ZM16.08 24.0686V26.1086H14.04L14 26.0686V26.0286C14 25.7886 14.0267 25.5752 14.08 25.3886C14.16 25.1752 14.2533 24.9886 14.36 24.8286C14.4933 24.6686 14.64 24.5352 14.8 24.4286C14.96 24.2952 15.1333 24.2019 15.32 24.1486C15.5333 24.0686 15.76 24.0286 16 24.0286H16.04L16.08 24.0686ZM16.08 23.9886L16.04 24.0286H16C15.76 24.0286 15.5333 24.0019 15.32 23.9486C15.1333 23.8686 14.96 23.7752 14.8 23.6686C14.64 23.5352 14.4933 23.3886 14.36 23.2286C14.2533 23.0686 14.16 22.8952 14.08 22.7086C14.0267 22.4952 14 22.2686 14 22.0286V21.9886L14.04 21.9486H16.08V23.9886ZM15.92 23.9886V21.9486H17.96L18 21.9886V22.0286C18 22.2686 17.96 22.4952 17.88 22.7086C17.8267 22.8952 17.7333 23.0686 17.6 23.2286C17.4933 23.3886 17.36 23.5352 17.2 23.6686C17.04 23.7752 16.8533 23.8686 16.64 23.9486C16.4533 24.0019 16.24 24.0286 16 24.0286H15.96L15.92 23.9886ZM15.92 20.0686L15.96 20.0286H16C16.24 20.0286 16.4533 20.0686 16.64 20.1486C16.8533 20.2019 17.04 20.2952 17.2 20.4286C17.36 20.5352 17.4933 20.6686 17.6 20.8286C17.7333 20.9886 17.8267 21.1752 17.88 21.3886C17.96 21.5752 18 21.7886 18 22.0286V22.0686L17.96 22.1086H15.92V20.0686ZM16.08 20.0686V22.1086H14.04L14 22.0686V22.0286C14 21.7886 14.0267 21.5752 14.08 21.3886C14.16 21.1752 14.2533 20.9886 14.36 20.8286C14.4933 20.6686 14.64 20.5352 14.8 20.4286C14.96 20.2952 15.1333 20.2019 15.32 20.1486C15.5333 20.0686 15.76 20.0286 16 20.0286H16.04L16.08 20.0686ZM16.08 19.9886L16.04 20.0286H16C15.76 20.0286 15.5333 20.0019 15.32 19.9486C15.1333 19.8686 14.96 19.7752 14.8 19.6686C14.64 19.5352 14.4933 19.3886 14.36 19.2286C14.2533 19.0686 14.16 18.8952 14.08 18.7086C14.0267 18.4952 14 18.2686 14 18.0286V17.9886L14.04 17.9486H16.08V19.9886ZM15.92 19.9886V17.9486H17.96L18 17.9886V18.0286C18 18.2686 17.96 18.4952 17.88 18.7086C17.8267 18.8952 17.7333 19.0686 17.6 19.2286C17.4933 19.3886 17.36 19.5352 17.2 19.6686C17.04 19.7752 16.8533 19.8686 16.64 19.9486C16.4533 20.0019 16.24 20.0286 16 20.0286H15.96L15.92 19.9886ZM15.92 16.0686L15.96 16.0286H16C16.24 16.0286 16.4533 16.0686 16.64 16.1486C16.8533 16.2019 17.04 16.2952 17.2 16.4286C17.36 16.5352 17.4933 16.6686 17.6 16.8286C17.7333 16.9886 17.8267 17.1752 17.88 17.3886C17.96 17.5752 18 17.7886 18 18.0286V18.0686L17.96 18.1086H15.92V16.0686ZM16.08 16.0686V18.1086H14.04L14 18.0686V18.0286C14 17.7886 14.0267 17.5752 14.08 17.3886C14.16 17.1752 14.2533 16.9886 14.36 16.8286C14.4933 16.6686 14.64 16.5352 14.8 16.4286C14.96 16.2952 15.1333 16.2019 15.32 16.1486C15.5333 16.0686 15.76 16.0286 16 16.0286H16.04L16.08 16.0686ZM16.08 15.9886L16.04 16.0286H16C15.76 16.0286 15.5333 16.0019 15.32 15.9486C15.1333 15.8686 14.96 15.7752 14.8 15.6686C14.64 15.5352 14.4933 15.3886 14.36 15.2286C14.2533 15.0686 14.16 14.8952 14.08 14.7086C14.0267 14.4952 14 14.2686 14 14.0286V13.9886L14.04 13.9486H16.08V15.9886ZM15.92 15.9886V13.9486H17.96L18 13.9886V14.0286C18 14.2686 17.96 14.4952 17.88 14.7086C17.8267 14.8952 17.7333 15.0686 17.6 15.2286C17.4933 15.3886 17.36 15.5352 17.2 15.6686C17.04 15.7752 16.8533 15.8686 16.64 15.9486C16.4533 16.0019 16.24 16.0286 16 16.0286H15.96L15.92 15.9886ZM15.92 12.0686L15.96 12.0286H16C16.24 12.0286 16.4533 12.0686 16.64 12.1486C16.8533 12.2019 17.04 12.2952 17.2 12.4286C17.36 12.5352 17.4933 12.6686 17.6 12.8286C17.7333 12.9886 17.8267 13.1752 17.88 13.3886C17.96 13.5752 18 13.7886 18 14.0286V14.0686L17.96 14.1086H15.92V12.0686ZM16.08 12.0686V14.1086H14.04L14 14.0686V14.0286C14 13.7886 14.0267 13.5752 14.08 13.3886C14.16 13.1752 14.2533 12.9886 14.36 12.8286C14.4933 12.6686 14.64 12.5352 14.8 12.4286C14.96 12.2952 15.1333 12.2019 15.32 12.1486C15.5333 12.0686 15.76 12.0286 16 12.0286H16.04L16.08 12.0686ZM16.08 11.9886L16.04 12.0286H16C15.76 12.0286 15.5333 12.0019 15.32 11.9486C15.1333 11.8686 14.96 11.7752 14.8 11.6686C14.64 11.5352 14.4933 11.3886 14.36 11.2286C14.2533 11.0686 14.16 10.8952 14.08 10.7086C14.0267 10.4952 14 10.2686 14 10.0286V9.98856L14.04 9.94856H16.08V11.9886ZM15.92 11.9886V9.94856H17.96L18 9.98856V10.0286C18 10.2686 17.96 10.4952 17.88 10.7086C17.8267 10.8952 17.7333 11.0686 17.6 11.2286C17.4933 11.3886 17.36 11.5352 17.2 11.6686C17.04 11.7752 16.8533 11.8686 16.64 11.9486C16.4533 12.0019 16.24 12.0286 16 12.0286H15.96L15.92 11.9886ZM15.92 8.06857L15.96 8.02857H16C16.24 8.02857 16.4533 8.06856 16.64 8.14856C16.8533 8.2019 17.04 8.29523 17.2 8.42856C17.36 8.53523 17.4933 8.66856 17.6 8.82856C17.7333 8.98856 17.8267 9.17523 17.88 9.38857C17.96 9.57523 18 9.78856 18 10.0286V10.0686L17.96 10.1086H15.92V8.06857ZM16.08 8.06857V10.1086H14.04L14 10.0686V10.0286C14 9.78856 14.0267 9.57523 14.08 9.38857C14.16 9.17523 14.2533 8.98856 14.36 8.82856C14.4933 8.66856 14.64 8.53523 14.8 8.42856C14.96 8.29523 15.1333 8.2019 15.32 8.14856C15.5333 8.06856 15.76 8.02857 16 8.02857H16.04L16.08 8.06857ZM16.08 7.98856L16.04 8.02857H16C15.76 8.02857 15.5333 8.0019 15.32 7.94856C15.1333 7.86856 14.96 7.77523 14.8 7.66857C14.64 7.53523 14.4933 7.38856 14.36 7.22856C14.2533 7.06856 14.16 6.89523 14.08 6.70856C14.0267 6.49523 14 6.26856 14 6.02856V5.98857L14.04 5.94856H16.08V7.98856ZM15.92 7.98856V5.94856H17.96L18 5.98857V6.02856C18 6.26856 17.96 6.49523 17.88 6.70856C17.8267 6.89523 17.7333 7.06856 17.6 7.22856C17.4933 7.38856 17.36 7.53523 17.2 7.66857C17.04 7.77523 16.8533 7.86856 16.64 7.94856C16.4533 8.0019 16.24 8.02857 16 8.02857H15.96L15.92 7.98856ZM15.92 4.06856L15.96 4.02856H16C16.24 4.02856 16.4533 4.06856 16.64 4.14857C16.8533 4.2019 17.04 4.29523 17.2 4.42856C17.36 4.53523 17.4933 4.66856 17.6 4.82856C17.7333 4.98856 17.8267 5.17523 17.88 5.38856C17.96 5.57523 18 5.78856 18 6.02856V6.06856L17.96 6.10856H15.92V4.06856ZM16.08 4.06856V6.10856H14.04L14 6.06856V6.02856C14 5.78856 14.0267 5.57523 14.08 5.38856C14.16 5.17523 14.2533 4.98856 14.36 4.82856C14.4933 4.66856 14.64 4.53523 14.8 4.42856C14.96 4.29523 15.1333 4.2019 15.32 4.14857C15.5333 4.06856 15.76 4.02856 16 4.02856H16.04L16.08 4.06856ZM20.08 27.9886L20.04 28.0286H20C19.76 28.0286 19.5333 28.0019 19.32 27.9486C19.1333 27.8686 18.96 27.7752 18.8 27.6686C18.64 27.5352 18.4933 27.3886 18.36 27.2286C18.2533 27.0686 18.16 26.8952 18.08 26.7086C18.0267 26.4952 18 26.2686 18 26.0286V25.9886L18.04 25.9486H20.08V27.9886ZM19.92 27.9886V25.9486H21.96L22 25.9886V26.0286C22 26.2686 21.96 26.4952 21.88 26.7086C21.8267 26.8952 21.7333 27.0686 21.6 27.2286C21.4933 27.3886 21.36 27.5352 21.2 27.6686C21.04 27.7752 20.8533 27.8686 20.64 27.9486C20.4533 28.0019 20.24 28.0286 20 28.0286H19.96L19.92 27.9886ZM19.92 24.0686L19.96 24.0286H20C20.24 24.0286 20.4533 24.0686 20.64 24.1486C20.8533 24.2019 21.04 24.2952 21.2 24.4286C21.36 24.5352 21.4933 24.6686 21.6 24.8286C21.7333 24.9886 21.8267 25.1752 21.88 25.3886C21.96 25.5752 22 25.7886 22 26.0286V26.0686L21.96 26.1086H19.92V24.0686ZM20.08 24.0686V26.1086H18.04L18 26.0686V26.0286C18 25.7886 18.0267 25.5752 18.08 25.3886C18.16 25.1752 18.2533 24.9886 18.36 24.8286C18.4933 24.6686 18.64 24.5352 18.8 24.4286C18.96 24.2952 19.1333 24.2019 19.32 24.1486C19.5333 24.0686 19.76 24.0286 20 24.0286H20.04L20.08 24.0686ZM20.08 11.9886L20.04 12.0286H20C19.76 12.0286 19.5333 12.0019 19.32 11.9486C19.1333 11.8686 18.96 11.7752 18.8 11.6686C18.64 11.5352 18.4933 11.3886 18.36 11.2286C18.2533 11.0686 18.16 10.8952 18.08 10.7086C18.0267 10.4952 18 10.2686 18 10.0286V9.98856L18.04 9.94856H20.08V11.9886ZM19.92 11.9886V9.94856H21.96L22 9.98856V10.0286C22 10.2686 21.96 10.4952 21.88 10.7086C21.8267 10.8952 21.7333 11.0686 21.6 11.2286C21.4933 11.3886 21.36 11.5352 21.2 11.6686C21.04 11.7752 20.8533 11.8686 20.64 11.9486C20.4533 12.0019 20.24 12.0286 20 12.0286H19.96L19.92 11.9886ZM19.92 8.06857L19.96 8.02857H20C20.24 8.02857 20.4533 8.06856 20.64 8.14856C20.8533 8.2019 21.04 8.29523 21.2 8.42856C21.36 8.53523 21.4933 8.66856 21.6 8.82856C21.7333 8.98856 21.8267 9.17523 21.88 9.38857C21.96 9.57523 22 9.78856 22 10.0286V10.0686L21.96 10.1086H19.92V8.06857ZM20.08 8.06857V10.1086H18.04L18 10.0686V10.0286C18 9.78856 18.0267 9.57523 18.08 9.38857C18.16 9.17523 18.2533 8.98856 18.36 8.82856C18.4933 8.66856 18.64 8.53523 18.8 8.42856C18.96 8.29523 19.1333 8.2019 19.32 8.14856C19.5333 8.06856 19.76 8.02857 20 8.02857H20.04L20.08 8.06857ZM24.08 27.9886L24.04 28.0286H24C23.76 28.0286 23.5333 28.0019 23.32 27.9486C23.1333 27.8686 22.96 27.7752 22.8 27.6686C22.64 27.5352 22.4933 27.3886 22.36 27.2286C22.2533 27.0686 22.16 26.8952 22.08 26.7086C22.0267 26.4952 22 26.2686 22 26.0286V25.9886L22.04 25.9486H24.08V27.9886ZM23.92 27.9886V25.9486H25.96L26 25.9886V26.0286C26 26.2686 25.96 26.4952 25.88 26.7086C25.8267 26.8952 25.7333 27.0686 25.6 27.2286C25.4933 27.3886 25.36 27.5352 25.2 27.6686C25.04 27.7752 24.8533 27.8686 24.64 27.9486C24.4533 28.0019 24.24 28.0286 24 28.0286H23.96L23.92 27.9886ZM23.92 24.0686L23.96 24.0286H24C24.24 24.0286 24.4533 24.0686 24.64 24.1486C24.8533 24.2019 25.04 24.2952 25.2 24.4286C25.36 24.5352 25.4933 24.6686 25.6 24.8286C25.7333 24.9886 25.8267 25.1752 25.88 25.3886C25.96 25.5752 26 25.7886 26 26.0286V26.0686L25.96 26.1086H23.92V24.0686ZM24.08 24.0686V26.1086H22.04L22 26.0686V26.0286C22 25.7886 22.0267 25.5752 22.08 25.3886C22.16 25.1752 22.2533 24.9886 22.36 24.8286C22.4933 24.6686 22.64 24.5352 22.8 24.4286C22.96 24.2952 23.1333 24.2019 23.32 24.1486C23.5333 24.0686 23.76 24.0286 24 24.0286H24.04L24.08 24.0686ZM24.08 11.9886L24.04 12.0286H24C23.76 12.0286 23.5333 12.0019 23.32 11.9486C23.1333 11.8686 22.96 11.7752 22.8 11.6686C22.64 11.5352 22.4933 11.3886 22.36 11.2286C22.2533 11.0686 22.16 10.8952 22.08 10.7086C22.0267 10.4952 22 10.2686 22 10.0286V9.98856L22.04 9.94856H24.08V11.9886ZM23.92 11.9886V9.94856H25.96L26 9.98856V10.0286C26 10.2686 25.96 10.4952 25.88 10.7086C25.8267 10.8952 25.7333 11.0686 25.6 11.2286C25.4933 11.3886 25.36 11.5352 25.2 11.6686C25.04 11.7752 24.8533 11.8686 24.64 11.9486C24.4533 12.0019 24.24 12.0286 24 12.0286H23.96L23.92 11.9886ZM23.92 8.06857L23.96 8.02857H24C24.24 8.02857 24.4533 8.06856 24.64 8.14856C24.8533 8.2019 25.04 8.29523 25.2 8.42856C25.36 8.53523 25.4933 8.66856 25.6 8.82856C25.7333 8.98856 25.8267 9.17523 25.88 9.38857C25.96 9.57523 26 9.78856 26 10.0286V10.0686L25.96 10.1086H23.92V8.06857ZM24.08 8.06857V10.1086H22.04L22 10.0686V10.0286C22 9.78856 22.0267 9.57523 22.08 9.38857C22.16 9.17523 22.2533 8.98856 22.36 8.82856C22.4933 8.66856 22.64 8.53523 22.8 8.42856C22.96 8.29523 23.1333 8.2019 23.32 8.14856C23.5333 8.06856 23.76 8.02857 24 8.02857H24.04L24.08 8.06857Z" fill="white"/>
</svg>
